<svg width="36" height="36" viewBox="0 0 36 36" fill="none" xmlns="http://www.w3.org/2000/svg">
<path d="M12 26C11.45 26 10.9792 25.8042 10.5875 25.4125C10.1958 25.0208 10 24.55 10 24C10 23.45 10.1958 22.9792 10.5875 22.5875C10.9792 22.1958 11.45 22 12 22C12.55 22 13.0208 22.1958 13.4125 22.5875C13.8042 22.9792 14 23.45 14 24C14 24.55 13.8042 25.0208 13.4125 25.4125C13.0208 25.8042 12.55 26 12 26ZM18 26C17.45 26 16.9792 25.8042 16.5875 25.4125C16.1958 25.0208 16 24.55 16 24C16 23.45 16.1958 22.9792 16.5875 22.5875C16.9792 22.1958 17.45 22 18 22C18.55 22 19.0208 22.1958 19.4125 22.5875C19.8042 22.9792 20 23.45 20 24C20 24.55 19.8042 25.0208 19.4125 25.4125C19.0208 25.8042 18.55 26 18 26ZM24 26C23.45 26 22.9792 25.8042 22.5875 25.4125C22.1958 25.0208 22 24.55 22 24C22 23.45 22.1958 22.9792 22.5875 22.5875C22.9792 22.1958 23.45 22 24 22C24.55 22 25.0208 22.1958 25.4125 22.5875C25.8042 22.9792 26 23.45 26 24C26 24.55 25.8042 25.0208 25.4125 25.4125C25.0208 25.8042 24.55 26 24 26ZM12 20C11.45 20 10.9792 19.8042 10.5875 19.4125C10.1958 19.0208 10 18.55 10 18C10 17.45 10.1958 16.9792 10.5875 16.5875C10.9792 16.1958 11.45 16 12 16C12.55 16 13.0208 16.1958 13.4125 16.5875C13.8042 16.9792 14 17.45 14 18C14 18.55 13.8042 19.0208 13.4125 19.4125C13.0208 19.8042 12.55 20 12 20ZM18 20C17.45 20 16.9792 19.8042 16.5875 19.4125C16.1958 19.0208 16 18.55 16 18C16 17.45 16.1958 16.9792 16.5875 16.5875C16.9792 16.1958 17.45 16 18 16C18.55 16 19.0208 16.1958 19.4125 16.5875C19.8042 16.9792 20 17.45 20 18C20 18.55 19.8042 19.0208 19.4125 19.4125C19.0208 19.8042 18.55 20 18 20ZM24 20C23.45 20 22.9792 19.8042 22.5875 19.4125C22.1958 19.0208 22 18.55 22 18C22 17.45 22.1958 16.9792 22.5875 16.5875C22.9792 16.1958 23.45 16 24 16C24.55 16 25.0208 16.1958 25.4125 16.5875C25.8042 16.9792 26 17.45 26 18C26 18.55 25.8042 19.0208 25.4125 19.4125C25.0208 19.8042 24.55 20 24 20ZM12 14C11.45 14 10.9792 13.8042 10.5875 13.4125C10.1958 13.0208 10 12.55 10 12C10 11.45 10.1958 10.9792 10.5875 10.5875C10.9792 10.1958 11.45 10 12 10C12.55 10 13.0208 10.1958 13.4125 10.5875C13.8042 10.9792 14 11.45 14 12C14 12.55 13.8042 13.0208 13.4125 13.4125C13.0208 13.8042 12.55 14 12 14ZM18 14C17.45 14 16.9792 13.8042 16.5875 13.4125C16.1958 13.0208 16 12.55 16 12C16 11.45 16.1958 10.9792 16.5875 10.5875C16.9792 10.1958 17.45 10 18 10C18.55 10 19.0208 10.1958 19.4125 10.5875C19.8042 10.9792 20 11.45 20 12C20 12.55 19.8042 13.0208 19.4125 13.4125C19.0208 13.8042 18.55 14 18 14ZM24 14C23.45 14 22.9792 13.8042 22.5875 13.4125C22.1958 13.0208 22 12.55 22 12C22 11.45 22.1958 10.9792 22.5875 10.5875C22.9792 10.1958 23.45 10 24 10C24.55 10 25.0208 10.1958 25.4125 10.5875C25.8042 10.9792 26 11.45 26 12C26 12.55 25.8042 13.0208 25.4125 13.4125C25.0208 13.8042 24.55 14 24 14Z" fill="#1C1B1F"/>
</svg>
