<svg width="24" height="24" viewBox="0 0 24 24" fill="none" xmlns="http://www.w3.org/2000/svg">
<g filter="url(#filter0_dd_113_4080)">
<path d="M12.5 20L11.3932 19.0302C9.91753 17.7514 8.70009 16.6559 7.74089 15.7435C6.78168 14.8312 6.02539 14.0194 5.47201 13.3082C4.91862 12.597 4.53494 11.9468 4.32096 11.3578C4.10699 10.7687 4 10.1652 4 9.54741C4 8.26868 4.45009 7.19109 5.35026 6.31466C6.25043 5.43822 7.3572 5 8.67057 5C9.39366 5 10.0946 5.15086 10.7734 5.45259C11.4523 5.75431 12.0278 6.17816 12.5 6.72414C12.9722 6.17816 13.5477 5.75431 14.2266 5.45259C14.9054 5.15086 15.6063 5 16.3294 5C17.6428 5 18.7496 5.43822 19.6497 6.31466C20.5499 7.19109 21 8.26868 21 9.54741C21 10.1652 20.8967 10.7615 20.6901 11.3362C20.4835 11.9109 20.1035 12.5503 19.5501 13.2543C18.9967 13.9583 18.2368 14.7737 17.2702 15.7004C16.3036 16.6272 15.0677 17.7514 13.5625 19.0733L12.5 20ZM12.5 17.9095C13.8724 16.717 15.0013 15.7004 15.8867 14.8599C16.7721 14.0194 17.4768 13.2866 18.0007 12.6616C18.5245 12.0366 18.8898 11.4799 19.0964 10.9914C19.303 10.5029 19.4062 10.0216 19.4062 9.54741C19.4062 8.69971 19.1111 7.98851 18.5208 7.41379C17.9306 6.83908 17.2001 6.55172 16.3294 6.55172C15.8129 6.55172 15.3296 6.65589 14.8796 6.86422C14.4295 7.07256 14.0421 7.36351 13.7174 7.73707L12.9427 8.62069H12.0573L11.2826 7.73707C10.9579 7.36351 10.5632 7.07256 10.0983 6.86422C9.63346 6.65589 9.15755 6.55172 8.67057 6.55172C7.79991 6.55172 7.06944 6.83908 6.47917 7.41379C5.88889 7.98851 5.59375 8.69971 5.59375 9.54741C5.59375 10.0216 5.68967 10.4921 5.88151 10.9591C6.07335 11.426 6.42383 11.9684 6.93294 12.5862C7.44206 13.204 8.14301 13.9368 9.03581 14.7845C9.9286 15.6322 11.0833 16.6739 12.5 17.9095Z" fill="white"/>
</g>
<defs>
<filter id="filter0_dd_113_4080" x="2" y="4" width="21" height="19" filterUnits="userSpaceOnUse" color-interpolation-filters="sRGB">
<feFlood flood-opacity="0" result="BackgroundImageFix"/>
<feColorMatrix in="SourceAlpha" type="matrix" values="0 0 0 0 0 0 0 0 0 0 0 0 0 0 0 0 0 0 127 0" result="hardAlpha"/>
<feOffset/>
<feGaussianBlur stdDeviation="0.5"/>
<feComposite in2="hardAlpha" operator="out"/>
<feColorMatrix type="matrix" values="0 0 0 0 0 0 0 0 0 0 0 0 0 0 0 0 0 0 0.12 0"/>
<feBlend mode="normal" in2="BackgroundImageFix" result="effect1_dropShadow_113_4080"/>
<feColorMatrix in="SourceAlpha" type="matrix" values="0 0 0 0 0 0 0 0 0 0 0 0 0 0 0 0 0 0 127 0" result="hardAlpha"/>
<feOffset dy="1"/>
<feGaussianBlur stdDeviation="1"/>
<feComposite in2="hardAlpha" operator="out"/>
<feColorMatrix type="matrix" values="0 0 0 0 0 0 0 0 0 0 0 0 0 0 0 0 0 0 0.16 0"/>
<feBlend mode="normal" in2="effect1_dropShadow_113_4080" result="effect2_dropShadow_113_4080"/>
<feBlend mode="normal" in="SourceGraphic" in2="effect2_dropShadow_113_4080" result="shape"/>
</filter>
</defs>
</svg>
