<svg width="32" height="32" viewBox="0 0 32 32" fill="none" xmlns="http://www.w3.org/2000/svg">
<g filter="url(#filter0_dd_333_2139)">
<path d="M16.05 24C13.8167 24 11.9167 23.225 10.35 21.675C8.78333 20.125 8 18.2333 8 16V15.825L6.4 17.425L5 16.025L9 12.025L13 16.025L11.6 17.425L10 15.825V16C10 17.6667 10.5875 19.0833 11.7625 20.25C12.9375 21.4167 14.3667 22 16.05 22C16.4833 22 16.9083 21.95 17.325 21.85C17.7417 21.75 18.15 21.6 18.55 21.4L20.05 22.9C19.4167 23.2667 18.7667 23.5417 18.1 23.725C17.4333 23.9083 16.75 24 16.05 24ZM23 19.975L19 15.975L20.4 14.575L22 16.175V16C22 14.3333 21.4125 12.9167 20.2375 11.75C19.0625 10.5833 17.6333 10 15.95 10C15.5167 10 15.0917 10.05 14.675 10.15C14.2583 10.25 13.85 10.4 13.45 10.6L11.95 9.1C12.5833 8.73333 13.2333 8.45833 13.9 8.275C14.5667 8.09167 15.25 8 15.95 8C18.1833 8 20.0833 8.775 21.65 10.325C23.2167 11.875 24 13.7667 24 16V16.175L25.6 14.575L27 15.975L23 19.975Z" fill="white"/>
</g>
<defs>
<filter id="filter0_dd_333_2139" x="3" y="7" width="26" height="20" filterUnits="userSpaceOnUse" color-interpolation-filters="sRGB">
<feFlood flood-opacity="0" result="BackgroundImageFix"/>
<feColorMatrix in="SourceAlpha" type="matrix" values="0 0 0 0 0 0 0 0 0 0 0 0 0 0 0 0 0 0 127 0" result="hardAlpha"/>
<feOffset/>
<feGaussianBlur stdDeviation="0.5"/>
<feComposite in2="hardAlpha" operator="out"/>
<feColorMatrix type="matrix" values="0 0 0 0 0 0 0 0 0 0 0 0 0 0 0 0 0 0 0.12 0"/>
<feBlend mode="normal" in2="BackgroundImageFix" result="effect1_dropShadow_333_2139"/>
<feColorMatrix in="SourceAlpha" type="matrix" values="0 0 0 0 0 0 0 0 0 0 0 0 0 0 0 0 0 0 127 0" result="hardAlpha"/>
<feOffset dy="1"/>
<feGaussianBlur stdDeviation="1"/>
<feComposite in2="hardAlpha" operator="out"/>
<feColorMatrix type="matrix" values="0 0 0 0 0 0 0 0 0 0 0 0 0 0 0 0 0 0 0.16 0"/>
<feBlend mode="normal" in2="effect1_dropShadow_333_2139" result="effect2_dropShadow_333_2139"/>
<feBlend mode="normal" in="SourceGraphic" in2="effect2_dropShadow_333_2139" result="shape"/>
</filter>
</defs>
</svg>
