<svg width="36" height="36" viewBox="0 0 36 36" fill="none" xmlns="http://www.w3.org/2000/svg">
<path d="M11 27C10.45 27 9.97917 26.8042 9.5875 26.4125C9.19583 26.0208 9 25.55 9 25V21H11V25H15V27H11ZM21 27V25H25V21H27V25C27 25.55 26.8042 26.0208 26.4125 26.4125C26.0208 26.8042 25.55 27 25 27H21ZM9 15V11C9 10.45 9.19583 9.97917 9.5875 9.5875C9.97917 9.19583 10.45 9 11 9H15V11H11V15H9ZM25 15V11H21V9H25C25.55 9 26.0208 9.19583 26.4125 9.5875C26.8042 9.97917 27 10.45 27 11V15H25Z" fill="#1C1B1F"/>
</svg>
