<svg width="32" height="32" viewBox="0 0 32 32" fill="none" xmlns="http://www.w3.org/2000/svg">
<g filter="url(#filter0_dd_247_3874)">
<path d="M16 26C15.45 26 14.9792 25.8042 14.5875 25.4125C14.1958 25.0208 14 24.55 14 24H18C18 24.55 17.8042 25.0208 17.4125 25.4125C17.0208 25.8042 16.55 26 16 26ZM8 23V21H10V14C10 12.6167 10.4167 11.3875 11.25 10.3125C12.0833 9.2375 13.1667 8.53333 14.5 8.2V7.5C14.5 7.08333 14.6458 6.72917 14.9375 6.4375C15.2292 6.14583 15.5833 6 16 6C16.4167 6 16.7708 6.14583 17.0625 6.4375C17.3542 6.72917 17.5 7.08333 17.5 7.5V7.825C17.3167 8.19167 17.1833 8.56667 17.1 8.95C17.0167 9.33333 16.9833 9.725 17 10.125C16.8333 10.0917 16.6708 10.0625 16.5125 10.0375C16.3542 10.0125 16.1833 10 16 10C14.9 10 13.9583 10.3917 13.175 11.175C12.3917 11.9583 12 12.9 12 14V21H20V14.575C20.3 14.7083 20.6208 14.8125 20.9625 14.8875C21.3042 14.9625 21.65 15 22 15V21H24V23H8Z" fill="white"/>
<path d="M19.875 12.125C20.4583 12.7083 21.1667 13 22 13C22.8333 13 23.5417 12.7083 24.125 12.125C24.7083 11.5417 25 10.8333 25 10C25 9.16667 24.7083 8.45833 24.125 7.875C23.5417 7.29167 22.8333 7 22 7C21.1667 7 20.4583 7.29167 19.875 7.875C19.2917 8.45833 19 9.16667 19 10C19 10.8333 19.2917 11.5417 19.875 12.125Z" fill="#E9E7FE"/>
</g>
<defs>
<filter id="filter0_dd_247_3874" x="6" y="5" width="21" height="24" filterUnits="userSpaceOnUse" color-interpolation-filters="sRGB">
<feFlood flood-opacity="0" result="BackgroundImageFix"/>
<feColorMatrix in="SourceAlpha" type="matrix" values="0 0 0 0 0 0 0 0 0 0 0 0 0 0 0 0 0 0 127 0" result="hardAlpha"/>
<feOffset/>
<feGaussianBlur stdDeviation="0.5"/>
<feComposite in2="hardAlpha" operator="out"/>
<feColorMatrix type="matrix" values="0 0 0 0 0 0 0 0 0 0 0 0 0 0 0 0 0 0 0.12 0"/>
<feBlend mode="normal" in2="BackgroundImageFix" result="effect1_dropShadow_247_3874"/>
<feColorMatrix in="SourceAlpha" type="matrix" values="0 0 0 0 0 0 0 0 0 0 0 0 0 0 0 0 0 0 127 0" result="hardAlpha"/>
<feOffset dy="1"/>
<feGaussianBlur stdDeviation="1"/>
<feComposite in2="hardAlpha" operator="out"/>
<feColorMatrix type="matrix" values="0 0 0 0 0 0 0 0 0 0 0 0 0 0 0 0 0 0 0.16 0"/>
<feBlend mode="normal" in2="effect1_dropShadow_247_3874" result="effect2_dropShadow_247_3874"/>
<feBlend mode="normal" in="SourceGraphic" in2="effect2_dropShadow_247_3874" result="shape"/>
</filter>
</defs>
</svg>
