<svg width="48" height="48" viewBox="0 0 48 48" fill="none" xmlns="http://www.w3.org/2000/svg">
<g clip-path="url(#clip0_373_3338)">
<path d="M0 24C0 10.7452 10.7452 0 24 0C37.2548 0 48 10.7452 48 24C48 37.2548 37.2548 48 24 48C10.7452 48 0 37.2548 0 24Z" fill="#AEAEAE"/>
<mask id="mask0_373_3338" style="mask-type:alpha" maskUnits="userSpaceOnUse" x="8" y="8" width="32" height="31">
<rect x="8.95239" y="8.38095" width="30.4762" height="30.4762" fill="#D9D9D9"/>
</mask>
<g mask="url(#mask0_373_3338)">
<path d="M24.1905 23.6191C22.7936 23.6191 21.5979 23.1217 20.6032 22.127C19.6085 21.1323 19.1111 19.9365 19.1111 18.5397C19.1111 17.1429 19.6085 15.9471 20.6032 14.9524C21.5979 13.9577 22.7936 13.4603 24.1905 13.4603C25.5873 13.4603 26.7831 13.9577 27.7778 14.9524C28.7725 15.9471 29.2698 17.1429 29.2698 18.5397C29.2698 19.9365 28.7725 21.1323 27.7778 22.127C26.7831 23.1217 25.5873 23.6191 24.1905 23.6191ZM14.0317 31.2381V30.2222C14.0317 29.5026 14.2169 28.8413 14.5873 28.2381C14.9577 27.6349 15.4497 27.1746 16.0635 26.8571C17.3757 26.2011 18.709 25.709 20.0635 25.381C21.418 25.0529 22.7936 24.8889 24.1905 24.8889C25.5873 24.8889 26.963 25.0529 28.3175 25.381C29.672 25.709 31.0053 26.2011 32.3175 26.8571C32.9312 27.1746 33.4233 27.6349 33.7936 28.2381C34.164 28.8413 34.3492 29.5026 34.3492 30.2222V31.2381C34.3492 31.9365 34.1005 32.5344 33.6032 33.0317C33.1058 33.5291 32.5079 33.7778 31.8095 33.7778H16.5714C15.873 33.7778 15.2751 33.5291 14.7778 33.0317C14.2804 32.5344 14.0317 31.9365 14.0317 31.2381Z" fill="white"/>
</g>
</g>
<defs>
<clipPath id="clip0_373_3338">
<path d="M0 24C0 10.7452 10.7452 0 24 0C37.2548 0 48 10.7452 48 24C48 37.2548 37.2548 48 24 48C10.7452 48 0 37.2548 0 24Z" fill="white"/>
</clipPath>
</defs>
</svg>
