<svg width="24" height="24" viewBox="0 0 24 24" fill="none" xmlns="http://www.w3.org/2000/svg">
<path d="M17.9375 19L12.9583 14.0208C12.5417 14.3264 12.0848 14.566 11.5877 14.7396C11.0906 14.9132 10.5616 15 10.0006 15C8.61132 15 7.43056 14.5139 6.45833 13.5417C5.48611 12.5694 5 11.3889 5 10C5 8.61111 5.48611 7.43056 6.45833 6.45833C7.43056 5.48611 8.61111 5 10 5C11.3889 5 12.5694 5.48611 13.5417 6.45833C14.5139 7.43056 15 8.61132 15 10.0006C15 10.5616 14.9132 11.0906 14.7396 11.5877C14.566 12.0848 14.3264 12.5417 14.0208 12.9583L19 17.9375L17.9375 19ZM10 13.5C10.9722 13.5 11.7986 13.1597 12.4792 12.4792C13.1597 11.7986 13.5 10.9722 13.5 10C13.5 9.02778 13.1597 8.20139 12.4792 7.52083C11.7986 6.84028 10.9722 6.5 10 6.5C9.02778 6.5 8.20139 6.84028 7.52083 7.52083C6.84028 8.20139 6.5 9.02778 6.5 10C6.5 10.9722 6.84028 11.7986 7.52083 12.4792C8.20139 13.1597 9.02778 13.5 10 13.5Z" fill="#1C1C1C"/>
</svg>
