<svg width="36" height="36" viewBox="0 0 36 36" fill="none" xmlns="http://www.w3.org/2000/svg">
<path d="M14 28C13.45 28 12.9792 27.8042 12.5875 27.4125C12.1958 27.0208 12 26.55 12 26V24H10C9.45 24 8.97917 23.8042 8.5875 23.4125C8.19583 23.0208 8 22.55 8 22V20H10V22H12V14C12 13.45 12.1958 12.9792 12.5875 12.5875C12.9792 12.1958 13.45 12 14 12H22V10H20V8H22C22.55 8 23.0208 8.19583 23.4125 8.5875C23.8042 8.97917 24 9.45 24 10V12H26C26.55 12 27.0208 12.1958 27.4125 12.5875C27.8042 12.9792 28 13.45 28 14V26C28 26.55 27.8042 27.0208 27.4125 27.4125C27.0208 27.8042 26.55 28 26 28H14ZM14 26H26V14H14V26ZM8 18V14H10V18H8ZM8 12V10C8 9.45 8.19583 8.97917 8.5875 8.5875C8.97917 8.19583 9.45 8 10 8H12V10H10V12H8ZM14 10V8H18V10H14Z" fill="#1C1B1F"/>
</svg>
