<svg width="100" height="100" viewBox="0 0 100 100" fill="none" xmlns="http://www.w3.org/2000/svg">
<mask id="mask0_503_8803" style="mask-type:alpha" maskUnits="userSpaceOnUse" x="0" y="0" width="100" height="100">
<rect width="100" height="100" fill="#D9D9D9"/>
</mask>
<g mask="url(#mask0_503_8803)">
<path d="M49.9998 91.6664C40.3471 89.2358 32.3783 83.6976 26.0936 75.0518C19.8089 66.4059 16.6665 56.8052 16.6665 46.2497V20.833L49.9998 8.33301L83.3332 20.833V46.2497C83.3332 56.8052 80.1908 66.4059 73.9061 75.0518C67.6214 83.6976 59.6526 89.2358 49.9998 91.6664ZM49.9998 82.9163C57.2221 80.6247 63.1943 76.0414 67.9165 69.1663C72.6387 62.2913 74.9998 54.6525 74.9998 46.2497V26.5622L49.9998 17.1872L24.9998 26.5622V46.2497C24.9998 54.6525 27.3609 62.2913 32.0832 69.1663C36.8054 76.0414 42.7776 80.6247 49.9998 82.9163ZM41.6665 66.6663H58.3332C59.5137 66.6663 60.5033 66.267 61.3019 65.4684C62.1005 64.6698 62.4998 63.6802 62.4998 62.4997V49.9997C62.4998 48.8191 62.1005 47.8295 61.3019 47.0309C60.5033 46.2323 59.5137 45.833 58.3332 45.833V41.6663C58.3332 39.3747 57.5172 37.4129 55.8853 35.7809C54.2533 34.149 52.2915 33.333 49.9998 33.333C47.7082 33.333 45.7464 34.149 44.1144 35.7809C42.4825 37.4129 41.6665 39.3747 41.6665 41.6663V45.833C40.4859 45.833 39.4964 46.2323 38.6978 47.0309C37.8991 47.8295 37.4998 48.8191 37.4998 49.9997V62.4997C37.4998 63.6802 37.8991 64.6698 38.6978 65.4684C39.4964 66.267 40.4859 66.6663 41.6665 66.6663ZM45.8332 45.833V41.6663C45.8332 40.4858 46.2325 39.4962 47.0311 38.6976C47.8297 37.899 48.8193 37.4997 49.9998 37.4997C51.1804 37.4997 52.17 37.899 52.9686 38.6976C53.7672 39.4962 54.1665 40.4858 54.1665 41.6663V45.833H45.8332Z" fill="#1C1B1F"/>
</g>
<path d="M68.9733 68.9733L70.3875 70.3875L68.9733 68.9733C67.4372 70.5093 66.2284 72.3102 65.3449 74.3576C64.4447 76.4438 64 78.6647 64 81C64 83.3353 64.4447 85.5562 65.3449 87.6424C66.2284 89.6898 67.4372 91.4907 68.9733 93.0267C70.5093 94.5628 72.3102 95.7716 74.3576 96.6551C76.4438 97.5553 78.6647 98 81 98C83.3353 98 85.5562 97.5553 87.6424 96.6551C89.6898 95.7716 91.4907 94.5628 93.0267 93.0267C94.5628 91.4907 95.7716 89.6898 96.6551 87.6424C97.5553 85.5562 98 83.3353 98 81C98 78.6647 97.5553 76.4438 96.6551 74.3576C95.7716 72.3102 94.5628 70.5093 93.0267 68.9733C91.4907 67.4372 89.6898 66.2284 87.6424 65.3449C85.5562 64.4447 83.3353 64 81 64C78.6647 64 76.4438 64.4447 74.3576 65.3449C72.3102 66.2284 70.5093 67.4372 68.9733 68.9733Z" fill="#6451F6" stroke="white" stroke-width="4"/>
</svg>
