<svg width="24" height="24" viewBox="0 0 24 24" fill="none" xmlns="http://www.w3.org/2000/svg">
<path d="M4.72092 18.5658C4.57708 18.5658 4.45098 18.5332 4.34262 18.468C4.23438 18.4027 4.15014 18.3167 4.08989 18.2099C4.02397 18.1044 3.99431 17.9858 4.0009 17.8539C4.00749 17.7221 4.04375 17.5969 4.10966 17.4782L11.387 5.33618C11.4529 5.21753 11.5421 5.13184 11.6545 5.0791C11.7668 5.02637 11.8822 5 12.0006 5C12.1188 5 12.234 5.02637 12.3461 5.0791C12.4581 5.13184 12.5471 5.21753 12.613 5.33618L19.8903 17.4782C19.9563 17.5969 19.9925 17.7221 19.9991 17.8539C20.0057 17.9858 19.976 18.1044 19.9101 18.2099C19.8442 18.3154 19.7585 18.401 19.653 18.467C19.5476 18.5329 19.4229 18.5658 19.2791 18.5658H4.72092ZM5.96854 17.142H18.0315L12 7.09618L5.96854 17.142ZM11.9958 16.1928C12.1964 16.1928 12.3658 16.125 12.5043 15.9893C12.6427 15.8537 12.7119 15.6856 12.7119 15.4851C12.7119 15.2845 12.6441 15.1151 12.5084 14.9766C12.3728 14.8382 12.2047 14.769 12.0042 14.769C11.8036 14.769 11.6342 14.8368 11.4957 14.9725C11.3573 15.1081 11.2881 15.2762 11.2881 15.4767C11.2881 15.6773 11.3559 15.8467 11.4916 15.9852C11.6272 16.1236 11.7953 16.1928 11.9958 16.1928ZM11.9958 13.8198C12.1964 13.8198 12.3658 13.7515 12.5043 13.6151C12.6427 13.4787 12.7119 13.3096 12.7119 13.1079V10.7348C12.7119 10.5331 12.6441 10.364 12.5084 10.2276C12.3728 10.0911 12.2047 10.0229 12.0042 10.0229C11.8036 10.0229 11.6342 10.0911 11.4957 10.2276C11.3573 10.364 11.2881 10.5331 11.2881 10.7348V13.1079C11.2881 13.3096 11.3559 13.4787 11.4916 13.6151C11.6272 13.7515 11.7953 13.8198 11.9958 13.8198Z" fill="#EF4444"/>
</svg>
