<svg width="16" height="17" viewBox="0 0 16 17" fill="none" xmlns="http://www.w3.org/2000/svg">
<mask id="mask0_426_7164" style="mask-type:alpha" maskUnits="userSpaceOnUse" x="0" y="0" width="16" height="17">
<rect y="0.5" width="16" height="16" fill="#D9D9D9"/>
</mask>
<g mask="url(#mask0_426_7164)">
<path d="M3.60002 14.1C3.27002 14.1 2.98752 13.9825 2.75252 13.7475C2.51752 13.5125 2.40002 13.23 2.40002 12.9V4.10002C2.40002 3.77002 2.51752 3.48752 2.75252 3.25252C2.98752 3.01752 3.27002 2.90002 3.60002 2.90002H12.4C12.73 2.90002 13.0125 3.01752 13.2475 3.25252C13.4825 3.48752 13.6 3.77002 13.6 4.10002V12.9C13.6 13.23 13.4825 13.5125 13.2475 13.7475C13.0125 13.9825 12.73 14.1 12.4 14.1H3.60002ZM3.60002 12.9H12.4V4.10002H3.60002V12.9Z" fill="#1C1B1F"/>
</g>
</svg>
