<svg width="32" height="32" viewBox="0 0 32 32" fill="none" xmlns="http://www.w3.org/2000/svg">
<g id="Frame 15">
<g id="Frame 259">
<g id="icon" clip-path="url(#clip0_282_5974)">
<path id="Vector" d="M18.0414 9.71621V19.1346H18.0528V9.71621C18.0528 9.35734 17.7621 9.06667 17.4032 9.06667H17.3918C17.7507 9.06667 18.0414 9.35734 18.0414 9.71621Z" fill="white"/>
<g id="Group">
<path id="Vector_2" d="M18.0412 18.1603C18.0412 18.2467 18.039 18.3324 18.0344 18.4175C18.037 18.3867 18.0393 18.3578 18.0412 18.3305V18.1603Z" fill="black"/>
<path id="Vector_3" d="M20.9256 9.06667H17.4035C17.7624 9.06667 18.053 9.35734 18.053 9.71621V13.5794C18.053 13.2387 18.3294 12.9623 18.6701 12.9623H20.3589C21.2377 12.9623 21.9503 13.6749 21.9503 14.5537V17.5205C21.9503 18.3993 21.2377 19.1119 20.3589 19.1119H18.6701C18.3294 19.1119 18.053 18.8355 18.053 18.4948V18.5494C18.0495 18.5367 18.053 18.1187 18.053 18.1187L18.0417 18.4542V18.3301C18.0397 18.3574 18.0374 18.3863 18.0348 18.4172C18.0222 18.6614 17.9913 18.9008 17.9439 19.1343C17.8874 19.4123 17.8065 19.6815 17.7049 19.9404C17.4389 20.6172 17.0268 21.2206 16.5058 21.71C16.2574 21.9436 15.9849 22.1511 15.6919 22.3287C15.2912 22.5717 14.8524 22.7587 14.387 22.8782C14.3841 22.8789 14.3812 22.8799 14.3782 22.8805C13.9921 22.9789 13.5874 23.0315 13.1704 23.0315H20.9263C23.6167 23.0315 25.7979 20.8504 25.7979 18.16V13.9379C25.7972 11.2478 23.6161 9.06667 20.9256 9.06667Z" fill="url(#paint0_linear_282_5974)"/>
</g>
<path id="Vector_4" d="M17.3918 9.06667H14.7936C14.6351 9.06667 14.4903 9.1235 14.3776 9.21768C14.235 9.33688 14.1441 9.51583 14.1441 9.71621V14.1555V17.9193C13.9671 18.6055 13.3442 19.1122 12.603 19.1122H11.8382C11.0968 19.1122 10.4738 18.6052 10.2972 17.9193V14.1555V9.71621C10.2972 9.51583 10.2062 9.33688 10.0637 9.21768C9.95096 9.1235 9.80579 9.06667 9.64762 9.06667H7.04945C6.69057 9.06667 6.3999 9.35734 6.3999 9.71621V18.1603C6.3999 19.3707 6.84159 20.4782 7.57233 21.3301C7.68665 21.4632 7.80811 21.5902 7.93575 21.7104C8.52586 22.2651 9.25432 22.6746 10.0637 22.8808C10.4498 22.9792 10.8545 23.0319 11.2715 23.0319H13.1698C13.5868 23.0319 13.9914 22.9792 14.3776 22.8808C14.3805 22.8802 14.3834 22.8792 14.3864 22.8786C14.8521 22.7587 15.2905 22.572 15.6913 22.3291C15.9842 22.1514 16.2571 21.9439 16.5052 21.7104C17.2252 21.0335 17.739 20.1404 17.9433 19.1346C18.0073 18.8199 18.041 18.4941 18.041 18.1603V9.71621C18.041 9.35734 17.7504 9.06667 17.3915 9.06667H17.3918Z" fill="white"/>
</g>
<g id="icon_2" clip-path="url(#clip1_282_5974)">
<path id="Vector_5" d="M18.0414 9.71621V19.1346H18.0528V9.71621C18.0528 9.35734 17.7621 9.06667 17.4032 9.06667H17.3918C17.7507 9.06667 18.0414 9.35734 18.0414 9.71621Z" fill="#6451F6"/>
<g id="Group_2">
<path id="Vector_6" d="M18.0412 18.1603C18.0412 18.2467 18.039 18.3324 18.0344 18.4175C18.037 18.3867 18.0393 18.3578 18.0412 18.3305V18.1603Z" fill="black"/>
<path id="Vector_7" d="M20.9256 9.06667H17.4035C17.7624 9.06667 18.053 9.35734 18.053 9.71621V13.5794C18.053 13.2387 18.3294 12.9623 18.6701 12.9623H20.3589C21.2377 12.9623 21.9503 13.6749 21.9503 14.5537V17.5205C21.9503 18.3993 21.2377 19.1119 20.3589 19.1119H18.6701C18.3294 19.1119 18.053 18.8355 18.053 18.4948V18.5494C18.0495 18.5367 18.053 18.1187 18.053 18.1187L18.0417 18.4542V18.3301C18.0397 18.3574 18.0374 18.3863 18.0348 18.4172C18.0222 18.6614 17.9913 18.9008 17.9439 19.1343C17.8874 19.4123 17.8065 19.6815 17.7049 19.9404C17.4389 20.6172 17.0268 21.2206 16.5058 21.71C16.2574 21.9436 15.9849 22.1511 15.6919 22.3287C15.2912 22.5717 14.8524 22.7587 14.387 22.8782C14.3841 22.8789 14.3812 22.8799 14.3782 22.8805C13.9921 22.9789 13.5874 23.0315 13.1704 23.0315H20.9263C23.6167 23.0315 25.7979 20.8504 25.7979 18.16V13.9379C25.7972 11.2478 23.6161 9.06667 20.9256 9.06667Z" fill="url(#paint1_linear_282_5974)"/>
</g>
<path id="Vector_8" d="M17.3918 9.06667H14.7936C14.6351 9.06667 14.4903 9.1235 14.3776 9.21768C14.235 9.33688 14.1441 9.51583 14.1441 9.71621V14.1555V17.9193C13.9671 18.6055 13.3442 19.1122 12.603 19.1122H11.8382C11.0968 19.1122 10.4738 18.6052 10.2972 17.9193V14.1555V9.71621C10.2972 9.51583 10.2062 9.33688 10.0637 9.21768C9.95096 9.1235 9.80579 9.06667 9.64762 9.06667H7.04945C6.69057 9.06667 6.3999 9.35734 6.3999 9.71621V18.1603C6.3999 19.3707 6.84159 20.4782 7.57233 21.3301C7.68665 21.4632 7.80811 21.5902 7.93575 21.7104C8.52586 22.2651 9.25432 22.6746 10.0637 22.8808C10.4498 22.9792 10.8545 23.0319 11.2715 23.0319H13.1698C13.5868 23.0319 13.9914 22.9792 14.3776 22.8808C14.3805 22.8802 14.3834 22.8792 14.3864 22.8786C14.8521 22.7587 15.2905 22.572 15.6913 22.3291C15.9842 22.1514 16.2571 21.9439 16.5052 21.7104C17.2252 21.0335 17.739 20.1404 17.9433 19.1346C18.0073 18.8199 18.041 18.4941 18.041 18.1603V9.71621C18.041 9.35734 17.7504 9.06667 17.3915 9.06667H17.3918Z" fill="#6451F6"/>
</g>
</g>
</g>
<defs>
<linearGradient id="paint0_linear_282_5974" x1="18.7306" y1="16.0493" x2="15.6639" y2="22.9826" gradientUnits="userSpaceOnUse">
<stop stop-color="white"/>
<stop offset="1" stop-color="#D8D3FD"/>
</linearGradient>
<linearGradient id="paint1_linear_282_5974" x1="18.7306" y1="16.0493" x2="15.6639" y2="22.9826" gradientUnits="userSpaceOnUse">
<stop stop-color="#6451F6"/>
<stop offset="1" stop-color="#B1A8FA"/>
</linearGradient>
<clipPath id="clip0_282_5974">
<rect width="19.3973" height="13.9652" fill="white" transform="translate(6.3999 9.06667)"/>
</clipPath>
<clipPath id="clip1_282_5974">
<rect width="19.3973" height="13.9652" fill="white" transform="translate(6.3999 9.06667)"/>
</clipPath>
</defs>
</svg>
