<svg width="32" height="32" viewBox="0 0 32 32" fill="none" xmlns="http://www.w3.org/2000/svg">
<g clip-path="url(#clip0_321_5921)">
<path d="M19.0048 6.02326V20.8605H19.0224V6.02326C19.0224 5.45791 18.5729 5.00001 18.0178 5.00001H18.0002C18.5553 5.00001 19.0048 5.45791 19.0048 6.02326Z" fill="#6451F6"/>
<path d="M19.0049 19.3256C19.0049 19.4617 19.0014 19.5968 18.9944 19.7308C18.9984 19.6822 19.0019 19.6367 19.0049 19.5937V19.3256Z" fill="black"/>
<path d="M23.4657 5.00001H18.0183C18.5734 5.00001 19.0229 5.45791 19.0229 6.02326V12.1091C19.0229 11.5724 19.4504 11.137 19.9773 11.137H22.5892C23.9484 11.137 25.0504 12.2595 25.0504 13.644V18.3177C25.0504 19.7021 23.9484 20.8247 22.5892 20.8247H19.9773C19.4504 20.8247 19.0229 20.3893 19.0229 19.8526V19.9385C19.0174 19.9186 19.0229 19.2601 19.0229 19.2601L19.0053 19.7886V19.5932C19.0023 19.6361 18.9988 19.6817 18.9948 19.7303C18.9752 20.115 18.9275 20.4921 18.8542 20.86C18.7668 21.2979 18.6417 21.7221 18.4845 22.1298C18.0731 23.1961 17.4357 24.1467 16.63 24.9177C16.2457 25.2855 15.8243 25.6125 15.3712 25.8923C14.7514 26.275 14.0728 26.5697 13.353 26.758C13.3485 26.759 13.344 26.7606 13.3395 26.7616C12.7422 26.9166 12.1164 26.9995 11.4714 26.9995H23.4667C27.6277 26.9995 31.0011 23.5634 31.0011 19.3251V12.6739C31.0001 8.4361 27.6267 5.00001 23.4657 5.00001Z" fill="url(#paint0_linear_321_5921)"/>
<path d="M18.0001 5H13.9818C13.7367 5 13.5126 5.08953 13.3383 5.23791C13.1178 5.42567 12.9772 5.70758 12.9772 6.02326V13.0167V18.946C12.7034 20.027 11.74 20.8252 10.5938 20.8252H9.41091C8.26417 20.8252 7.30077 20.0265 7.02753 18.946V13.0167V6.02326C7.02753 5.70758 6.88688 5.42567 6.66638 5.23791C6.49208 5.08953 6.26756 5 6.02294 5H2.00459C1.44955 5 1 5.45791 1 6.02326V19.3256C1 21.2324 1.68312 22.9771 2.81328 24.3191C2.99009 24.5288 3.17795 24.7289 3.37535 24.9182C4.28802 25.792 5.41466 26.4372 6.66638 26.7621C7.2636 26.9171 7.88946 27 8.53441 27H11.4703C12.1153 27 12.7411 26.9171 13.3383 26.7621C13.3429 26.7611 13.3474 26.7595 13.3519 26.7585C14.0722 26.5697 14.7503 26.2755 15.3701 25.8928C15.8232 25.613 16.2451 25.286 16.6289 24.9182C17.7425 23.852 18.5371 22.445 18.853 20.8605C18.952 20.3647 19.0042 19.8515 19.0042 19.3256V6.02326C19.0042 5.45791 18.5547 5 17.9996 5H18.0001Z" fill="#6451F6"/>
</g>
<defs>
<linearGradient id="paint0_linear_321_5921" x1="20.0708" y1="16" x2="15.18" y2="26.8558" gradientUnits="userSpaceOnUse">
<stop stop-color="#6451F6"/>
<stop offset="1" stop-color="#B1A8FA"/>
</linearGradient>
<clipPath id="clip0_321_5921">
<rect width="30" height="22" fill="white" transform="translate(1 5)"/>
</clipPath>
</defs>
</svg>
