<svg width="40" height="40" viewBox="0 0 40 40" fill="none" xmlns="http://www.w3.org/2000/svg">
<mask id="mask0_294_4417" style="mask-type:alpha" maskUnits="userSpaceOnUse" x="0" y="0" width="40" height="40">
<rect width="40" height="40" fill="#D9D9D9"/>
</mask>
<g mask="url(#mask0_294_4417)">
<path d="M10.8337 33.3333C8.30588 33.3333 6.14616 32.4583 4.35449 30.7083C2.56283 28.9583 1.66699 26.8194 1.66699 24.2916C1.66699 22.125 2.31977 20.1944 3.62533 18.5C4.93088 16.8055 6.63921 15.7222 8.75033 15.25C9.44477 12.6944 10.8337 10.625 12.917 9.04163C15.0003 7.45829 17.3614 6.66663 20.0003 6.66663C23.2503 6.66663 26.0073 7.79857 28.2712 10.0625C30.535 12.3263 31.667 15.0833 31.667 18.3333C33.5837 18.5555 35.1739 19.3819 36.4378 20.8125C37.7017 22.243 38.3337 23.9166 38.3337 25.8333C38.3337 27.9166 37.6045 29.6875 36.1462 31.1458C34.6878 32.6041 32.917 33.3333 30.8337 33.3333H10.8337Z" fill="#D7DCE1"/>
</g>
</svg>
