<svg width="40" height="40" viewBox="0 0 40 40" fill="none" xmlns="http://www.w3.org/2000/svg">
<mask id="mask0_294_4414" style="mask-type:alpha" maskUnits="userSpaceOnUse" x="0" y="0" width="40" height="40">
<rect width="40" height="40" fill="#D9D9D9"/>
</mask>
<g mask="url(#mask0_294_4414)">
<path d="M18.7495 5C18.2495 7.75 18.4023 10.4375 19.2078 13.0625C20.0134 15.6875 21.4023 17.9861 23.3745 19.9583C25.3467 21.9306 27.6453 23.3194 30.2703 24.125C32.8953 24.9306 35.5828 25.0833 38.3328 24.5833C37.6106 28.5278 35.7356 31.7847 32.7078 34.3542C29.6801 36.9236 26.1801 38.25 22.2078 38.3333C23.0967 37.6111 23.7842 36.7431 24.2703 35.7292C24.7565 34.7153 24.9995 33.6389 24.9995 32.5C24.9995 30.6111 24.4092 28.9792 23.2287 27.6042C22.0481 26.2292 20.5412 25.4028 18.7078 25.125C17.819 23.5417 16.6037 22.2917 15.062 21.375C13.5203 20.4583 11.8328 20 9.99951 20C9.11062 20 8.24257 20.1111 7.39535 20.3333C6.54812 20.5556 5.74951 20.8889 4.99951 21.3333C5.05507 17.3056 6.36757 13.7639 8.93701 10.7083C11.5065 7.65278 14.7773 5.75 18.7495 5Z" fill="#FFCE4F"/>
<path d="M13.6663 24.4167C12.5552 23.6945 11.333 23.3334 9.99967 23.3334C8.16634 23.3334 6.5969 23.9792 5.29134 25.2709C3.98579 26.5625 3.33301 28.1389 3.33301 30C3.33301 31.8334 3.98579 33.4028 5.29134 34.7084C6.5969 36.0139 8.16634 36.6667 9.99967 36.6667H17.4997C18.6663 36.6667 19.6525 36.2639 20.458 35.4584C21.2636 34.6528 21.6663 33.6667 21.6663 32.5C21.6663 31.3612 21.2775 30.382 20.4997 29.5625C19.7219 28.7431 18.7497 28.3334 17.583 28.3334H16.5413L16.1247 27.375C15.5969 26.125 14.7775 25.1389 13.6663 24.4167Z" fill="#D7DCE1"/>
</g>
</svg>
