<svg width="40" height="40" viewBox="0 0 40 40" fill="none" xmlns="http://www.w3.org/2000/svg">
<mask id="mask0_294_4408" style="mask-type:alpha" maskUnits="userSpaceOnUse" x="0" y="0" width="40" height="40">
<rect width="40" height="40" fill="#D9D9D9"/>
</mask>
<g mask="url(#mask0_294_4408)">
<path d="M24.9578 28.6666C24.8467 26.9166 24.2148 25.4027 23.062 24.125C21.9092 22.8472 20.4578 22.0555 18.7078 21.75C17.8467 20.25 16.687 19.0625 15.2287 18.1875C13.7703 17.3125 12.1662 16.8055 10.4162 16.6666C11.1384 14.6388 12.3745 13.0208 14.1245 11.8125C15.8745 10.6041 17.8328 9.99996 19.9995 9.99996C22.7773 9.99996 25.1384 10.9722 27.0828 12.9166C29.0273 14.8611 29.9995 17.2222 29.9995 20C29.9995 21.8055 29.5551 23.4791 28.6662 25.0208C27.7773 26.5625 26.5412 27.7777 24.9578 28.6666ZM18.3328 8.33329V1.66663H21.6662V8.33329H18.3328ZM29.4162 12.9166L27.0828 10.5833L31.7495 5.83329L34.1245 8.20829L29.4162 12.9166ZM31.6662 21.6666V18.3333H38.3328V21.6666H31.6662ZM31.7495 34.1666L27.0828 29.4166L29.4162 27.0833L34.1662 31.75L31.7495 34.1666ZM10.5828 12.9166L5.87451 8.20829L8.24951 5.83329L12.9162 10.5833L10.5828 12.9166Z" fill="#FFCE4F"/>
<path d="M5.29134 31.375C6.5969 32.6806 8.16634 33.3333 9.99967 33.3333H17.4997C18.6663 33.3333 19.6525 32.9306 20.458 32.125C21.2636 31.3194 21.6663 30.3333 21.6663 29.1667C21.6663 28 21.2705 27.0139 20.4788 26.2083C19.6872 25.4028 18.708 25 17.5413 25H16.5413L16.1247 24.0417C15.6247 22.7917 14.8122 21.8056 13.6872 21.0833C12.5622 20.3611 11.333 20 9.99967 20C8.16634 20 6.5969 20.6528 5.29134 21.9583C3.98579 23.2639 3.33301 24.8333 3.33301 26.6667C3.33301 28.5 3.98579 30.0694 5.29134 31.375Z" fill="#D7DCE1"/>
</g>
</svg>
