<svg width="40" height="40" viewBox="0 0 40 40" fill="none" xmlns="http://www.w3.org/2000/svg">
<mask id="mask0_294_4411" style="mask-type:alpha" maskUnits="userSpaceOnUse" x="0" y="0" width="40" height="40">
<rect width="40" height="40" fill="#D9D9D9"/>
</mask>
<g mask="url(#mask0_294_4411)">
<path d="M5.6875 23.6458C7.47917 25.4375 9.63889 26.3333 12.1667 26.3333H28.8333C30.9167 26.3333 32.6875 25.6042 34.1458 24.1458C35.6042 22.6875 36.3333 20.9167 36.3333 18.8333C36.3333 16.8611 35.6806 15.1667 34.375 13.75C33.0694 12.3333 31.4583 11.5417 29.5417 11.375C29.1528 8.98611 28.0347 6.99306 26.1875 5.39583C24.3403 3.79861 22.1667 3 19.6667 3C17.8333 3 16.1458 3.45139 14.6042 4.35417C13.0625 5.25694 11.8472 6.5 10.9583 8.08333C8.70833 8.38889 6.81944 9.40278 5.29167 11.125C3.76389 12.8472 3 14.8611 3 17.1667C3 19.6944 3.89583 21.8542 5.6875 23.6458Z" fill="#D7DCE1"/>
<path d="M22.9168 36.1666C22.5001 36.3889 22.0765 36.4236 21.6459 36.2708C21.2154 36.118 20.889 35.8333 20.6668 35.4166L18.1668 30.4166C17.9445 30 17.9098 29.5764 18.0626 29.1458C18.2154 28.7153 18.5001 28.3889 18.9168 28.1666C19.3334 27.9444 19.757 27.9097 20.1876 28.0625C20.6182 28.2153 20.9445 28.5 21.1668 28.9166L23.6668 33.9166C23.889 34.3333 23.9237 34.7569 23.7709 35.1875C23.6182 35.618 23.3334 35.9444 22.9168 36.1666ZM32.9168 36.1666C32.5001 36.3889 32.0765 36.4236 31.6459 36.2708C31.2154 36.118 30.889 35.8333 30.6668 35.4166L28.1668 30.4166C27.9445 30 27.9098 29.5764 28.0626 29.1458C28.2154 28.7153 28.5001 28.3889 28.9168 28.1666C29.3334 27.9444 29.757 27.9097 30.1876 28.0625C30.6182 28.2153 30.9445 28.5 31.1668 28.9166L33.6668 33.9166C33.889 34.3333 33.9237 34.7569 33.7709 35.1875C33.6182 35.618 33.3334 35.9444 32.9168 36.1666ZM12.9168 36.1666C12.5001 36.3889 12.0765 36.4236 11.6459 36.2708C11.2154 36.118 10.889 35.8333 10.6668 35.4166L8.16677 30.4166C7.94455 30 7.90982 29.5764 8.0626 29.1458C8.21538 28.7153 8.5001 28.3889 8.91677 28.1666C9.33344 27.9444 9.75705 27.9097 10.1876 28.0625C10.6182 28.2153 10.9445 28.5 11.1668 28.9166L13.6668 33.9166C13.889 34.3333 13.9237 34.7569 13.7709 35.1875C13.6182 35.618 13.3334 35.9444 12.9168 36.1666Z" fill="#CDDBF7"/>
</g>
</svg>
