<svg width="40" height="40" viewBox="0 0 40 40" fill="none" xmlns="http://www.w3.org/2000/svg">
<mask id="mask0_294_4427" style="mask-type:alpha" maskUnits="userSpaceOnUse" x="0" y="0" width="40" height="40">
<rect width="40" height="40" fill="#D9D9D9"/>
</mask>
<g mask="url(#mask0_294_4427)">
<path d="M18.6667 8.66667V2H22V8.66667H18.6667ZM29.75 13.25L27.4583 10.9583L32.125 6.16667L34.4583 8.54167L29.75 13.25ZM32 22V18.6667H38.6667V22H32ZM18.6667 38.6667V32H22V38.6667H18.6667ZM10.9167 13.1667L6.16667 8.54167L8.54167 6.20833L13.25 10.9167L10.9167 13.1667ZM32.0833 34.5L27.4583 29.7083L29.7083 27.4583L34.4583 32.0417L32.0833 34.5ZM2 22V18.6667H8.66667V22H2ZM8.54167 34.5L6.20833 32.125L10.875 27.4583L12.0833 28.5833L13.2917 29.75L8.54167 34.5ZM20.3333 30.3333C17.5556 30.3333 15.1944 29.3611 13.25 27.4167C11.3056 25.4722 10.3333 23.1111 10.3333 20.3333C10.3333 17.5556 11.3056 15.1944 13.25 13.25C15.1944 11.3056 17.5556 10.3333 20.3333 10.3333C23.1111 10.3333 25.4722 11.3056 27.4167 13.25C29.3611 15.1944 30.3333 17.5556 30.3333 20.3333C30.3333 23.1111 29.3611 25.4722 27.4167 27.4167C25.4722 29.3611 23.1111 30.3333 20.3333 30.3333Z" fill="#FFCE4F"/>
</g>
</svg>
