<svg width="40" height="40" viewBox="0 0 40 40" fill="none" xmlns="http://www.w3.org/2000/svg">
<mask id="mask0_294_4402" style="mask-type:alpha" maskUnits="userSpaceOnUse" x="0" y="0" width="40" height="40">
<rect width="40" height="40" fill="#D9D9D9"/>
</mask>
<g mask="url(#mask0_294_4402)">
<path d="M12.4997 25C9.9719 25 7.81217 24.1041 6.02051 22.3125C4.22884 20.5208 3.33301 18.3611 3.33301 15.8333C3.33301 13.5277 4.0969 11.5138 5.62467 9.79163C7.15245 8.0694 9.04134 7.05551 11.2913 6.74996C12.1802 5.16663 13.3955 3.92357 14.9372 3.02079C16.4788 2.11801 18.1663 1.66663 19.9997 1.66663C22.4997 1.66663 24.6733 2.46524 26.5205 4.06246C28.3677 5.65968 29.4858 7.65274 29.8747 10.0416C31.7913 10.2083 33.4025 11 34.708 12.4166C36.0136 13.8333 36.6663 15.5277 36.6663 17.5C36.6663 19.5833 35.9372 21.3541 34.4788 22.8125C33.0205 24.2708 31.2497 25 29.1663 25H12.4997Z" fill="#C7C7C7"/>
<path d="M9.35368 31.0625C9.75646 31.4653 10.2495 31.6667 10.8328 31.6667C11.4162 31.6667 11.9092 31.4653 12.312 31.0625C12.7148 30.6597 12.9162 30.1667 12.9162 29.5833C12.9162 29 12.7148 28.5069 12.312 28.1042C11.9092 27.7014 11.4162 27.5 10.8328 27.5C10.2495 27.5 9.75646 27.7014 9.35368 28.1042C8.9509 28.5069 8.74951 29 8.74951 29.5833C8.74951 30.1667 8.9509 30.6597 9.35368 31.0625Z" fill="#CDDBF6"/>
<path d="M14.3537 36.0625C14.7565 36.4653 15.2495 36.6667 15.8328 36.6667C16.4162 36.6667 16.9092 36.4653 17.312 36.0625C17.7148 35.6597 17.9162 35.1667 17.9162 34.5833C17.9162 34 17.7148 33.5069 17.312 33.1042C16.9092 32.7014 16.4162 32.5 15.8328 32.5C15.2495 32.5 14.7565 32.7014 14.3537 33.1042C13.9509 33.5069 13.7495 34 13.7495 34.5833C13.7495 35.1667 13.9509 35.6597 14.3537 36.0625Z" fill="#CDDBF6"/>
<path d="M19.3537 31.0625C19.7565 31.4653 20.2495 31.6667 20.8328 31.6667C21.4162 31.6667 21.9092 31.4653 22.312 31.0625C22.7148 30.6597 22.9162 30.1667 22.9162 29.5833C22.9162 29 22.7148 28.5069 22.312 28.1042C21.9092 27.7014 21.4162 27.5 20.8328 27.5C20.2495 27.5 19.7565 27.7014 19.3537 28.1042C18.9509 28.5069 18.7495 29 18.7495 29.5833C18.7495 30.1667 18.9509 30.6597 19.3537 31.0625Z" fill="#CDDBF6"/>
<path d="M29.3537 31.0625C29.7565 31.4653 30.2495 31.6667 30.8328 31.6667C31.4162 31.6667 31.9092 31.4653 32.312 31.0625C32.7148 30.6597 32.9162 30.1667 32.9162 29.5833C32.9162 29 32.7148 28.5069 32.312 28.1042C31.9092 27.7014 31.4162 27.5 30.8328 27.5C30.2495 27.5 29.7565 27.7014 29.3537 28.1042C28.9509 28.5069 28.7495 29 28.7495 29.5833C28.7495 30.1667 28.9509 30.6597 29.3537 31.0625Z" fill="#CDDBF6"/>
<path d="M24.3537 36.0625C24.7565 36.4653 25.2495 36.6667 25.8328 36.6667C26.4162 36.6667 26.9092 36.4653 27.312 36.0625C27.7148 35.6597 27.9162 35.1667 27.9162 34.5833C27.9162 34 27.7148 33.5069 27.312 33.1042C26.9092 32.7014 26.4162 32.5 25.8328 32.5C25.2495 32.5 24.7565 32.7014 24.3537 33.1042C23.9509 33.5069 23.7495 34 23.7495 34.5833C23.7495 35.1667 23.9509 35.6597 24.3537 36.0625Z" fill="#CDDBF6"/>
</g>
</svg>
