<svg width="40" height="40" viewBox="0 0 40 40" fill="none" xmlns="http://www.w3.org/2000/svg">
<mask id="mask0_294_4423" style="mask-type:alpha" maskUnits="userSpaceOnUse" x="0" y="0" width="40" height="40">
<rect width="40" height="40" fill="#D9D9D9"/>
</mask>
<g mask="url(#mask0_294_4423)">
<path d="M12.4997 26.6667C9.9719 26.6667 7.81217 25.7709 6.02051 23.9792C4.22884 22.1875 3.33301 20.0278 3.33301 17.5C3.33301 15.1945 4.0969 13.1806 5.62467 11.4584C7.15245 9.73615 9.04134 8.72226 11.2913 8.41671C12.1802 6.83337 13.3955 5.59032 14.9372 4.68754C16.4788 3.78476 18.1663 3.33337 19.9997 3.33337C22.4997 3.33337 24.6733 4.13199 26.5205 5.72921C28.3677 7.32643 29.4858 9.31949 29.8747 11.7084C31.7913 11.875 33.4025 12.6667 34.708 14.0834C36.0136 15.5 36.6663 17.1945 36.6663 19.1667C36.6663 21.25 35.9372 23.0209 34.4788 24.4792C33.0205 25.9375 31.2497 26.6667 29.1663 26.6667H12.4997Z" fill="#D7DCE1"/>
<path d="M18.333 35.8334L20.833 38.3334L23.333 35.8334L20.833 33.3334L18.333 35.8334Z" fill="#CDDBF6"/>
<path d="M13.333 34.0834L15.083 35.8334L19.9997 30.9167L18.2497 29.1667L13.333 34.0834Z" fill="#CDDBF6"/>
<path d="M23.333 30.8334L25.833 33.3334L28.333 30.8334L25.833 28.3334L23.333 30.8334Z" fill="#CDDBF6"/>
<path d="M8.33301 30.8334L10.833 33.3334L13.333 30.8334L10.833 28.3334L8.33301 30.8334Z" fill="#CDDBF6"/>
</g>
</svg>
