<svg width="32" height="32" viewBox="0 0 32 32" fill="none" xmlns="http://www.w3.org/2000/svg">
<g clip-path="url(#clip0_503_7736)">
<path d="M18.0414 9.71644V19.1348H18.0528V9.71644C18.0528 9.35757 17.7621 9.06689 17.4032 9.06689H17.3918C17.7507 9.06689 18.0414 9.35757 18.0414 9.71644Z" fill="white"/>
<path d="M18.0412 18.1606C18.0412 18.247 18.039 18.3328 18.0344 18.4179C18.037 18.387 18.0393 18.3581 18.0412 18.3308V18.1606Z" fill="black"/>
<path d="M23.5829 5.00049H18.0044C18.5728 5.00049 19.0331 5.45841 19.0331 6.02377V12.1097C19.0331 11.573 19.4709 11.1376 20.0105 11.1376H22.6853C24.0773 11.1376 25.2058 12.2601 25.2058 13.6446V18.3185C25.2058 19.703 24.0773 20.8255 22.6853 20.8255H20.0105C19.4709 20.8255 19.0331 20.3901 19.0331 19.8534V19.9393C19.0275 19.9194 19.0331 19.2609 19.0331 19.2609L19.0151 19.7894V19.594C19.0121 19.637 19.0085 19.6825 19.0043 19.7311C18.9843 20.1159 18.9354 20.4929 18.8603 20.8608C18.7708 21.2988 18.6427 21.7229 18.4817 22.1307C18.0604 23.197 17.4077 24.1476 16.5826 24.9186C16.1891 25.2865 15.7575 25.6134 15.2935 25.8933C14.6588 26.276 13.9638 26.5707 13.2267 26.759C13.2221 26.76 13.2175 26.7616 13.2128 26.7626C12.6012 26.9176 11.9603 27.0005 11.2998 27.0005H23.584C27.8452 27.0005 31.2998 23.5643 31.2998 19.3259V12.6746C31.2988 8.43666 27.8441 5.00049 23.5829 5.00049Z" fill="url(#paint0_linear_503_7736)"/>
<path d="M17.3918 9.06689H14.7936C14.6351 9.06689 14.4903 9.12373 14.3776 9.21791C14.235 9.3371 14.1441 9.51605 14.1441 9.71644V14.1557V17.9195C13.9671 18.6058 13.3442 19.1124 12.603 19.1124H11.8382C11.0968 19.1124 10.4738 18.6054 10.2972 17.9195V14.1557V9.71644C10.2972 9.51605 10.2062 9.3371 10.0637 9.21791C9.95096 9.12373 9.80579 9.06689 9.64762 9.06689H7.04945C6.69057 9.06689 6.3999 9.35757 6.3999 9.71644V18.1605C6.3999 19.3709 6.84159 20.4784 7.57233 21.3303C7.68665 21.4634 7.80811 21.5904 7.93575 21.7106C8.52586 22.2653 9.25432 22.6748 10.0637 22.8811C10.4498 22.9795 10.8545 23.0321 11.2715 23.0321H13.1698C13.5868 23.0321 13.9914 22.9795 14.3776 22.8811C14.3805 22.8804 14.3834 22.8794 14.3864 22.8788C14.8521 22.759 15.2905 22.5722 15.6913 22.3293C15.9842 22.1516 16.2571 21.9441 16.5052 21.7106C17.2252 21.0338 17.739 20.1406 17.9433 19.1348C18.0073 18.8201 18.041 18.4944 18.041 18.1605V9.71644C18.041 9.35757 17.7504 9.06689 17.3915 9.06689H17.3918Z" fill="white"/>
</g>
<g clip-path="url(#clip1_503_7736)">
<path d="M19.0048 6.02326V20.8605H19.0224V6.02326C19.0224 5.45791 18.5729 5 18.0178 5H18.0002C18.5553 5 19.0048 5.45791 19.0048 6.02326Z" fill="#6451F6"/>
<path d="M19.0049 19.3257C19.0049 19.4618 19.0014 19.5968 18.9944 19.7309C18.9984 19.6823 19.0019 19.6368 19.0049 19.5938V19.3257Z" fill="black"/>
<path d="M23.4657 5H18.0183C18.5734 5 19.0229 5.45791 19.0229 6.02326V12.1091C19.0229 11.5724 19.4504 11.137 19.9773 11.137H22.5892C23.9484 11.137 25.0504 12.2595 25.0504 13.644V18.3177C25.0504 19.7021 23.9484 20.8246 22.5892 20.8246H19.9773C19.4504 20.8246 19.0229 20.3893 19.0229 19.8526V19.9385C19.0174 19.9186 19.0229 19.2601 19.0229 19.2601L19.0053 19.7886V19.5932C19.0023 19.6361 18.9988 19.6817 18.9948 19.7303C18.9752 20.115 18.9275 20.4921 18.8542 20.86C18.7668 21.2979 18.6417 21.722 18.4845 22.1298C18.0731 23.196 17.4357 24.1466 16.63 24.9177C16.2457 25.2855 15.8243 25.6125 15.3712 25.8923C14.7514 26.275 14.0728 26.5697 13.353 26.758C13.3485 26.759 13.344 26.7606 13.3395 26.7616C12.7422 26.9166 12.1164 26.9995 11.4714 26.9995H23.4667C27.6277 26.9995 31.0011 23.5634 31.0011 19.3251V12.6739C31.0001 8.43609 27.6267 5 23.4657 5Z" fill="url(#paint1_linear_503_7736)"/>
<path d="M18.0001 5H13.9818C13.7367 5 13.5126 5.08953 13.3383 5.23791C13.1178 5.42567 12.9772 5.70758 12.9772 6.02326V13.0167V18.946C12.7034 20.027 11.74 20.8252 10.5938 20.8252H9.41091C8.26417 20.8252 7.30077 20.0265 7.02753 18.946V13.0167V6.02326C7.02753 5.70758 6.88688 5.42567 6.66638 5.23791C6.49208 5.08953 6.26756 5 6.02294 5H2.00459C1.44955 5 1 5.45791 1 6.02326V19.3256C1 21.2324 1.68312 22.9771 2.81328 24.3191C2.99009 24.5288 3.17795 24.7289 3.37535 24.9182C4.28802 25.792 5.41466 26.4372 6.66638 26.7621C7.2636 26.9171 7.88946 27 8.53441 27H11.4703C12.1153 27 12.7411 26.9171 13.3383 26.7621C13.3429 26.7611 13.3474 26.7595 13.3519 26.7585C14.0722 26.5697 14.7503 26.2755 15.3701 25.8928C15.8232 25.613 16.2451 25.286 16.6289 24.9182C17.7425 23.852 18.5371 22.445 18.853 20.8605C18.952 20.3647 19.0042 19.8515 19.0042 19.3256V6.02326C19.0042 5.45791 18.5547 5 17.9996 5H18.0001Z" fill="#6451F6"/>
</g>
<defs>
<linearGradient id="paint0_linear_503_7736" x1="20.1063" y1="16.0008" x2="15.2925" y2="26.9425" gradientUnits="userSpaceOnUse">
<stop stop-color="white"/>
<stop offset="1" stop-color="#D8D3FD"/>
</linearGradient>
<linearGradient id="paint1_linear_503_7736" x1="20.0708" y1="16" x2="15.18" y2="26.8558" gradientUnits="userSpaceOnUse">
<stop stop-color="#6451F6"/>
<stop offset="1" stop-color="#B1A8FA"/>
</linearGradient>
<clipPath id="clip0_503_7736">
<rect width="19.3973" height="13.9652" fill="white" transform="translate(6.3999 9.06689)"/>
</clipPath>
<clipPath id="clip1_503_7736">
<rect width="30" height="22" fill="white" transform="translate(1 5)"/>
</clipPath>
</defs>
</svg>
