<svg width="18" height="16" viewBox="0 0 18 16" fill="none" xmlns="http://www.w3.org/2000/svg">
<path d="M15.2544 4.5C15.0431 4.5 14.8654 4.42813 14.7213 4.28438C14.5769 4.14063 14.5048 3.9625 14.5048 3.75V3H13.7525C13.5393 3 13.3606 2.92813 13.2163 2.78438C13.0721 2.64063 13 2.4625 13 2.25C13 2.0375 13.0721 1.85937 13.2163 1.71562C13.3606 1.57187 13.5393 1.5 13.7525 1.5H14.5048V0.75C14.5048 0.5375 14.5769 0.359375 14.7213 0.215624C14.8654 0.0718745 15.0431 0 15.2544 0C15.4656 0 15.6427 0.0718745 15.7856 0.215624C15.9285 0.359375 16 0.5375 16 0.75V1.5H16.7456C16.9569 1.5 17.1354 1.57146 17.2812 1.71437C17.4271 1.85729 17.5 2.03437 17.5 2.24562C17.5 2.45687 17.4281 2.63437 17.2844 2.77812C17.1406 2.92187 16.9625 2.99375 16.75 2.99375H16V3.74375C16 3.95625 15.9285 4.13542 15.7856 4.28125C15.6427 4.42708 15.4656 4.5 15.2544 4.5ZM8 13C9 13 9.83333 12.6597 10.5 11.9792C11.1667 11.2986 11.5 10.4722 11.5 9.5C11.5 8.54167 11.1667 7.71875 10.5 7.03125C9.83333 6.34375 9 6 8 6C7 6 6.16667 6.34375 5.5 7.03125C4.83333 7.71875 4.5 8.54514 4.5 9.51042C4.5 10.4757 4.83333 11.2986 5.5 11.9792C6.16667 12.6597 7 13 8 13ZM8 11.5C7.41667 11.5 6.9375 11.3125 6.5625 10.9375C6.1875 10.5625 6 10.0938 6 9.53125C6 8.96875 6.1875 8.48958 6.5625 8.09375C6.9375 7.69792 7.41667 7.5 8 7.5C8.58333 7.5 9.0625 7.69792 9.4375 8.09375C9.8125 8.48958 10 8.96875 10 9.53125C10 10.0938 9.8125 10.5625 9.4375 10.9375C9.0625 11.3125 8.58333 11.5 8 11.5ZM1.5 15.5C1.09722 15.5 0.746528 15.3507 0.447917 15.0521C0.149306 14.7535 0 14.4028 0 14V5C0 4.59722 0.149306 4.24653 0.447917 3.94792C0.746528 3.64931 1.09722 3.5 1.5 3.5H4L5.04167 2.10417C5.19444 1.90972 5.37625 1.76042 5.58708 1.65625C5.79778 1.55208 6.01875 1.5 6.25 1.5H10.75C10.9625 1.5 11.1406 1.57187 11.2844 1.71562C11.4281 1.85937 11.5 2.0375 11.5 2.25V3.375C11.5 3.6875 11.6094 3.95312 11.8281 4.17188C12.0469 4.39062 12.3125 4.5 12.625 4.5H13V4.875C13 5.1875 13.1094 5.45312 13.3281 5.67188C13.5469 5.89062 13.8125 6 14.125 6H15.25C15.4625 6 15.6406 6.07187 15.7844 6.21562C15.9281 6.35938 16 6.5375 16 6.75V14C16 14.4028 15.8531 14.7535 15.5594 15.0521C15.2656 15.3507 14.9125 15.5 14.5 15.5H1.5Z" fill="#3C3C3C"/>
</svg>
