<svg width="18" height="18" viewBox="0 0 18 18" fill="none" xmlns="http://www.w3.org/2000/svg">
<mask id="mask0_428_4180" style="mask-type:alpha" maskUnits="userSpaceOnUse" x="0" y="0" width="18" height="18">
<rect width="18" height="18" fill="#D9D9D9"/>
</mask>
<g mask="url(#mask0_428_4180)">
<path d="M4 13.2308V11.6923C4 11.4466 4.06944 11.2142 4.20833 10.9952C4.34722 10.7762 4.53889 10.5919 4.78333 10.4423C5.39444 10.1004 6.04089 9.83868 6.72267 9.65705C7.40444 9.47543 8.09689 9.38462 8.8 9.38462C9.21867 9.38462 9.63167 9.41667 10.039 9.48077C10.4463 9.54487 10.8444 9.63568 11.2333 9.75321L10.2667 10.6827C10.0222 10.6293 9.77989 10.5919 9.53967 10.5705C9.29944 10.5491 9.05289 10.5385 8.8 10.5385C8.18889 10.5385 7.59444 10.6132 7.01667 10.7628C6.43889 10.9124 5.89444 11.1368 5.38333 11.4359C5.32778 11.4786 5.28333 11.5199 5.25 11.5596C5.21667 11.5995 5.2 11.6437 5.2 11.6923V12.0769H9.2V13.2308H4ZM10.4 14V12.1891L13.9 8.83974C13.9807 8.76058 14.0703 8.70337 14.1688 8.66811C14.2674 8.63296 14.3653 8.61538 14.4627 8.61538C14.5688 8.61538 14.6705 8.63408 14.7678 8.67147C14.8652 8.70887 14.9537 8.76496 15.0333 8.83974L15.7667 9.5609C15.8399 9.63846 15.8971 9.72463 15.9382 9.81939C15.9794 9.91416 16 10.0083 16 10.1019C16 10.1955 15.9817 10.2912 15.9452 10.3891C15.9085 10.4869 15.849 10.574 15.7667 10.6506L12.2833 14H10.4ZM11.2 13.2308H11.95L13.8667 11.3878L13.5 11.0192L13.1333 10.6667L11.2 12.5096V13.2308ZM13.5 11.0192L13.1333 10.6667L13.8667 11.3878L13.5 11.0192ZM8.8 8.61538C8.13333 8.61538 7.56667 8.39103 7.1 7.94231C6.63333 7.49359 6.4 6.94872 6.4 6.30769C6.4 5.66667 6.63333 5.12179 7.1 4.67308C7.56667 4.22436 8.13333 4 8.8 4C9.46667 4 10.0333 4.22436 10.5 4.67308C10.9667 5.12179 11.2 5.66667 11.2 6.30769C11.2 6.94872 10.9667 7.49359 10.5 7.94231C10.0333 8.39103 9.46667 8.61538 8.8 8.61538ZM8.8035 7.46154C9.1345 7.46154 9.41667 7.34824 9.65 7.12163C9.88333 6.89503 10 6.6226 10 6.30433C10 5.98606 9.88217 5.71474 9.6465 5.49038C9.41083 5.26603 9.1275 5.15385 8.7965 5.15385C8.4655 5.15385 8.18333 5.26715 7.95 5.49375C7.71667 5.72035 7.6 5.99279 7.6 6.31106C7.6 6.62933 7.71783 6.90064 7.9535 7.125C8.18917 7.34936 8.4725 7.46154 8.8035 7.46154Z" fill="#1C1B1F"/>
</g>
</svg>
