<svg width="18" height="18" viewBox="0 0 18 18" fill="none" xmlns="http://www.w3.org/2000/svg">
<path d="M5.96429 14C5.69911 14 5.4721 13.9052 5.28326 13.7157C5.09442 13.5262 5 13.2984 5 13.0323V5.93548C5 5.66935 5.09442 5.44153 5.28326 5.25202C5.4721 5.0625 5.69911 4.96774 5.96429 4.96774H8.25446C8.32589 4.68996 8.47545 4.45923 8.70313 4.27554C8.9308 4.09185 9.19643 4 9.5 4C9.80357 4 10.0692 4.09185 10.2969 4.27554C10.5246 4.45923 10.6741 4.68996 10.7455 4.96774H13.0357C13.3009 4.96774 13.5279 5.0625 13.7167 5.25202C13.9056 5.44153 14 5.66935 14 5.93548V13.0323C14 13.2984 13.9056 13.5262 13.7167 13.7157C13.5279 13.9052 13.3009 14 13.0357 14H5.96429ZM5.96429 13.0323H13.0357V5.93548H12.0714V7.54839H6.92857V5.93548H5.96429V13.0323ZM9.49719 5.93548C9.63299 5.93548 9.74777 5.88938 9.84152 5.79718C9.93527 5.70497 9.98214 5.59073 9.98214 5.45444C9.98214 5.31815 9.93621 5.20296 9.84433 5.10887C9.75246 5.01478 9.63862 4.96774 9.50281 4.96774C9.36701 4.96774 9.25223 5.01384 9.15848 5.10605C9.06473 5.19825 9.01786 5.3125 9.01786 5.44879C9.01786 5.58508 9.0638 5.70027 9.15567 5.79435C9.24754 5.88844 9.36138 5.93548 9.49719 5.93548Z" fill="#1C1B1F"/>
</svg>
