<svg width="18" height="18" viewBox="0 0 18 18" fill="none" xmlns="http://www.w3.org/2000/svg">
<path d="M7.125 13V11.8571H4.9375C4.67969 11.8571 4.45898 11.7732 4.27539 11.6052C4.0918 11.4373 4 11.2354 4 10.9995V5.85381C4 5.61794 4.0918 5.41667 4.27539 5.25C4.45898 5.08333 4.67969 5 4.9375 5H13.0625C13.3203 5 13.541 5.08397 13.7246 5.2519C13.9082 5.41984 14 5.62175 14 5.85762V11.0033C14 11.2392 13.9082 11.4405 13.7246 11.6071C13.541 11.7738 13.3203 11.8571 13.0625 11.8571H10.875V13H7.125ZM4.9375 11H13.0625V5.85714H4.9375V11Z" fill="#1C1B1F"/>
</svg>
