<svg width="18" height="18" viewBox="0 0 18 18" fill="none" xmlns="http://www.w3.org/2000/svg">
<mask id="mask0_428_4293" style="mask-type:alpha" maskUnits="userSpaceOnUse" x="0" y="0" width="18" height="18">
<rect width="18" height="18" fill="#D9D9D9"/>
</mask>
<g mask="url(#mask0_428_4293)">
<path d="M5.07143 14C4.77679 14 4.52455 13.8951 4.31473 13.6853C4.10491 13.4754 4 13.2232 4 12.9286V9.71429H5.07143V12.9286H8.28571V14H5.07143ZM9.71429 14V12.9286H12.9286V9.71429H14V12.9286C14 13.2232 13.8951 13.4754 13.6853 13.6853C13.4754 13.8951 13.2232 14 12.9286 14H9.71429ZM5.78571 11.8571L7.39286 9.71429L8.46429 11.1429L10.0714 9L12.2143 11.8571H5.78571ZM4 8.28571V5.07143C4 4.77679 4.10491 4.52455 4.31473 4.31473C4.52455 4.10491 4.77679 4 5.07143 4H8.28571V5.07143H5.07143V8.28571H4ZM12.9286 8.28571V5.07143H9.71429V4H12.9286C13.2232 4 13.4754 4.10491 13.6853 4.31473C13.8951 4.52455 14 4.77679 14 5.07143V8.28571H12.9286ZM11.1429 7.57143C10.9444 7.57143 10.7758 7.50198 10.6369 7.3631C10.498 7.22421 10.4286 7.05556 10.4286 6.85714C10.4286 6.65873 10.498 6.49008 10.6369 6.35119C10.7758 6.2123 10.9444 6.14286 11.1429 6.14286C11.3413 6.14286 11.5099 6.2123 11.6488 6.35119C11.7877 6.49008 11.8571 6.65873 11.8571 6.85714C11.8571 7.05556 11.7877 7.22421 11.6488 7.3631C11.5099 7.50198 11.3413 7.57143 11.1429 7.57143Z" fill="#1C1B1F"/>
</g>
</svg>
