<svg width="48" height="48" viewBox="0 0 48 48" fill="none" xmlns="http://www.w3.org/2000/svg">
<g clip-path="url(#clip0_502_7342)">
<path d="M0 24C0 10.7452 10.7452 0 24 0C37.2548 0 48 10.7452 48 24C48 37.2548 37.2548 48 24 48C10.7452 48 0 37.2548 0 24Z" fill="#AEAEAE"/>
<mask id="mask0_502_7342" style="mask-type:alpha" maskUnits="userSpaceOnUse" x="8" y="8" width="32" height="31">
<rect x="8.95239" y="8.38086" width="30.4762" height="30.4762" fill="#D9D9D9"/>
</mask>
<g mask="url(#mask0_502_7342)">
<path d="M24.1905 23.6189C22.7936 23.6189 21.5979 23.1216 20.6032 22.1269C19.6085 21.1322 19.1111 19.9364 19.1111 18.5396C19.1111 17.1427 19.6085 15.947 20.6032 14.9523C21.5979 13.9576 22.7936 13.4602 24.1905 13.4602C25.5873 13.4602 26.7831 13.9576 27.7778 14.9523C28.7725 15.947 29.2698 17.1427 29.2698 18.5396C29.2698 19.9364 28.7725 21.1322 27.7778 22.1269C26.7831 23.1216 25.5873 23.6189 24.1905 23.6189ZM14.0317 31.238V30.2221C14.0317 29.5025 14.2169 28.8412 14.5873 28.238C14.9577 27.6348 15.4497 27.1745 16.0635 26.857C17.3757 26.2009 18.709 25.7089 20.0635 25.3808C21.418 25.0528 22.7936 24.8888 24.1905 24.8888C25.5873 24.8888 26.963 25.0528 28.3175 25.3808C29.672 25.7089 31.0053 26.2009 32.3175 26.857C32.9312 27.1745 33.4233 27.6348 33.7936 28.238C34.164 28.8412 34.3492 29.5025 34.3492 30.2221V31.238C34.3492 31.9364 34.1005 32.5343 33.6032 33.0316C33.1058 33.529 32.5079 33.7777 31.8095 33.7777H16.5714C15.873 33.7777 15.2751 33.529 14.7778 33.0316C14.2804 32.5343 14.0317 31.9364 14.0317 31.238Z" fill="white"/>
</g>
</g>
<defs>
<clipPath id="clip0_502_7342">
<path d="M0 24C0 10.7452 10.7452 0 24 0C37.2548 0 48 10.7452 48 24C48 37.2548 37.2548 48 24 48C10.7452 48 0 37.2548 0 24Z" fill="white"/>
</clipPath>
</defs>
</svg>
