<svg width="40" height="40" viewBox="0 0 40 40" fill="none" xmlns="http://www.w3.org/2000/svg">
<mask id="mask0_294_4233" style="mask-type:alpha" maskUnits="userSpaceOnUse" x="0" y="0" width="40" height="40">
<rect width="40" height="40" fill="#D9D9D9"/>
</mask>
<g mask="url(#mask0_294_4233)">
<path d="M24.958 28.6666C24.8469 26.9166 24.2149 25.4028 23.0621 24.125C21.9094 22.8472 20.458 22.0555 18.708 21.75C17.8469 20.25 16.6871 19.0625 15.2288 18.1875C13.7705 17.3125 12.1663 16.8055 10.4163 16.6666C11.1385 14.6389 12.3746 13.0208 14.1246 11.8125C15.8746 10.6041 17.833 9.99997 19.9996 9.99997C22.7774 9.99997 25.1385 10.9722 27.083 12.9166C29.0274 14.8611 29.9996 17.2222 29.9996 20C29.9996 21.8055 29.5552 23.4791 28.6663 25.0208C27.7774 26.5625 26.5413 27.7778 24.958 28.6666ZM18.333 8.33331V1.66664H21.6663V8.33331H18.333ZM29.4163 12.9166L27.083 10.5833L31.7496 5.83331L34.1246 8.20831L29.4163 12.9166ZM31.6663 21.6666V18.3333H38.333V21.6666H31.6663ZM31.7496 34.1666L27.083 29.4166L29.4163 27.0833L34.1663 31.75L31.7496 34.1666ZM10.583 12.9166L5.87463 8.20831L8.24963 5.83331L12.9163 10.5833L10.583 12.9166Z" fill="#FFCE4F"/>
<path d="M5.29134 31.375C6.5969 32.6806 8.16634 33.3333 9.99967 33.3333H17.4997C18.6663 33.3333 19.6525 32.9306 20.458 32.125C21.2636 31.3194 21.6663 30.3333 21.6663 29.1667C21.6663 28 21.2705 27.0139 20.4788 26.2083C19.6872 25.4028 18.708 25 17.5413 25H16.5413L16.1247 24.0417C15.6247 22.7917 14.8122 21.8056 13.6872 21.0833C12.5622 20.3611 11.333 20 9.99967 20C8.16634 20 6.5969 20.6528 5.29134 21.9583C3.98579 23.2639 3.33301 24.8333 3.33301 26.6667C3.33301 28.5 3.98579 30.0694 5.29134 31.375Z" fill="#D7DCE1"/>
</g>
</svg>
